<?xml version="1.0" encoding="utf-8"?>
<!-- Generator: Adobe Illustrator 25.2.3, SVG Export Plug-In . SVG Version: 6.00 Build 0)  -->
<svg version="1.1" id="Layer_1" xmlns="http://www.w3.org/2000/svg" xmlns:xlink="http://www.w3.org/1999/xlink" x="0px" y="0px"
	 viewBox="0 0 129 89" style="enable-background:new 0 0 129 89;" xml:space="preserve">
<style type="text/css">
	.st0{fill-rule:evenodd;clip-rule:evenodd;fill:#38BDF8;}
</style>
<path class="st0" d="M72.8,0.2C61.4,1.5,52.6,8.2,46.6,20c-0.7,1.4-1.6,3.3-1.9,4.2c-0.3,0.9-3,7.8-6,15.3
	c-9.4,24.2-8.6,22.1-8.6,21.4c0-0.2-0.2-3.2-0.3-6.6c-1.6-29.1-1.6-29.2-2.2-32.2c-1.1-5.1-4.1-10.3-8.1-14c-5-4.7-11.8-7.7-17.8-8
	L0,0.1l0.1,0.5c0.1,0.3,3.3,20.1,7.3,44c4,24,7.2,43.7,7.3,44l0.1,0.4l1.8-0.1c6.5-0.4,12-2.2,16.8-5.4c4.1-2.7,7.9-6.7,10.8-11.4
	c1.2-1.9,3.2-5.8,3.9-7.5c0.6-1.4,6.1-15.5,9.9-25.5l2.4-6.2l0.2,1.4c0.1,0.8,1.9,13.4,4,28.1L68.5,89l2.1-0.1
	c13.7-0.7,23.8-7.7,30.6-21c0.6-1.1,7.1-16.8,14.5-34.8L129,0.3l-1.4-0.1c-2.4-0.1-6.2,0.5-9.4,1.6c-2.3,0.7-6,2.6-8,4
	c-2.1,1.5-6,5.3-7.6,7.5c-2.3,3.1-4.3,6.7-6,10.6c-0.4,0.9-2.7,7.9-5.1,15.5c-6.7,20.9-7,21.8-7.1,21.7c0,0-0.6-4.2-1.2-9.2
	c-0.6-5-2-15.6-3-23.4c-1-7.8-2.2-17.2-2.7-20.8C77,4.2,76.6,1,76.5,0.6L76.4,0l-1.2,0C74.6,0,73.5,0.1,72.8,0.2z"/>
</svg>
