<?xml version="1.0" encoding="utf-8"?>
<!-- Generator: Adobe Illustrator 25.2.3, SVG Export Plug-In . SVG Version: 6.00 Build 0)  -->
<svg version="1.1" id="Layer_1" xmlns="http://www.w3.org/2000/svg" xmlns:xlink="http://www.w3.org/1999/xlink" x="0px" y="0px"
	 viewBox="0 0 93 95" style="enable-background:new 0 0 93 95;" xml:space="preserve">
<style type="text/css">
	.st0{fill-rule:evenodd;clip-rule:evenodd;fill:#38BDF8;}
</style>
<path class="st0" d="M43.8,0.1c-11.8,1-22.3,6-30.5,14.5C6.2,21.9,1.9,30.6,0.4,41c-0.5,3.3-0.5,9.8,0,13.1
	c1.6,10.3,5.9,19.1,12.9,26.4C20.8,88.2,30,93,40.7,94.6c3.3,0.5,10.9,0.5,14.5,0c10.5-1.5,18.5-5.5,25.2-12.5
	c6.3-6.6,10.3-15.2,12.2-25.9C93,53.9,93,52.9,93,48c0-3.8-0.1-6.1-0.3-7.1l-0.3-1.5l-22.2-0.2c-12.2-0.1-22.3-0.1-22.5-0.1
	c-0.2,0.1-0.3,1.7-0.3,9.1v9h12.9c11.2,0,12.9,0,12.9,0.3c0,0.5-1,3-1.9,4.8C69,66.9,65,70.9,60.7,73.2c-2,1-5.4,2.2-7.9,2.6
	c-3,0.5-7.9,0.5-10.7-0.1c-6-1.3-10.5-3.7-14.8-8c-5.6-5.6-8.4-12.2-8.4-20.2c0-7.6,2.6-14.2,7.8-19.7c10-10.6,26.5-12,38.1-3.2
	l1.4,1l6.6-6.6c3.6-3.6,6.6-6.7,6.6-6.8c0-0.1-0.8-0.8-1.7-1.6C70.4,4.8,61.1,1,51.9,0.2C49.6,0,45.7-0.1,43.8,0.1z"/>
</svg>
