<?xml version="1.0" encoding="utf-8"?>
<!-- Generator: Adobe Illustrator 25.2.3, SVG Export Plug-In . SVG Version: 6.00 Build 0)  -->
<svg version="1.1" id="Layer_1" xmlns="http://www.w3.org/2000/svg" xmlns:xlink="http://www.w3.org/1999/xlink" x="0px" y="0px"
	 viewBox="0 0 65 95" style="enable-background:new 0 0 65 95;" xml:space="preserve">
<style type="text/css">
	.st0{fill-rule:evenodd;clip-rule:evenodd;fill:#38BDF8;}
</style>
<path class="st0" d="M13.2,0.7C0.1,4.3-4.4,20.9,5,30.8l2,2.1L5,35c-6.7,7-6.7,18.2,0,25.2l2,2.1l-2,2.1c-6.8,7.1-6.7,18.4,0.2,25.4
	c9.8,9.8,26.6,5.2,30-8.2c0.5-1.9,0.7-4.8,0.7-11.1v-8.5l2,1.3c8.7,5.4,20.7,1.8,25.2-7.6c3.3-6.8,2-15.1-3.2-20.6l-2-2.1l2-2.1
	c9.5-10,4.9-26.6-8.4-30.1C48-0.2,16.7-0.2,13.2,0.7z M29.1,18.2v11.3l-7.2-0.1c-8-0.2-9.2-0.5-12-3.5C7.6,23.4,7,21.8,7,18.2
	c0-3.6,0.6-5.2,2.9-7.7c2.8-3,4.4-3.4,12.6-3.5l6.5,0V18.2z M51.8,8c2.1,1.1,4.2,3.2,5.3,5.2c1.2,2.3,1.3,7.5,0.1,9.7
	C56.1,25,54,27.2,52,28.3c-1.5,0.8-2.5,0.9-8.9,1.1l-7.2,0.1V18.2V6.9L43.1,7C49.1,7.1,50.5,7.3,51.8,8z M29.1,47.6v11.3l-7.2-0.1
	c-8-0.2-9.2-0.5-12-3.5C7.6,52.8,7,51.2,7,47.6c0-3.6,0.6-5.2,2.9-7.7c2.8-3,4.4-3.4,12.6-3.5l6.5,0V47.6z M52,37.5
	c2,1,4.1,3.2,5.2,5.3c0.6,1.1,0.8,2.4,0.8,4.8c0,3.6-0.6,5.2-2.9,7.7c-2.3,2.4-4.3,3.3-8,3.3c-3.7,0-5.7-0.8-8-3.3
	c-2.3-2.5-2.9-4.1-2.9-7.7c0-3.6,0.6-5.2,2.9-7.7c1.4-1.5,3-2.5,5-3.2C45.8,36.1,50.2,36.6,52,37.5z M29,73
	c-0.2,7.9-0.4,8.8-3.1,11.7c-2.3,2.4-4.3,3.3-8,3.3c-3.7,0-5.7-0.8-8-3.3C7.6,82.2,7,80.5,7,76.9c0-3.6,0.6-5.2,2.9-7.7
	c2.8-3,4.4-3.4,12.6-3.5l6.6,0L29,73z"/>
</svg>
