<?xml version="1.0" standalone="no"?>
<!DOCTYPE svg PUBLIC "-//W3C//DTD SVG 20010904//EN"
 "http://www.w3.org/TR/2001/REC-SVG-20010904/DTD/svg10.dtd">
<svg version="1.0" xmlns="http://www.w3.org/2000/svg"
 width="474.000000pt" height="474.000000pt" viewBox="0 0 474.000000 474.000000"
 preserveAspectRatio="xMidYMid meet">

<g transform="translate(0.000000,474.000000) scale(0.100000,-0.100000)"
fill="#CE5C8C" stroke="none">
<path d="M2025 4050 c-200 -21 -364 -64 -600 -158 -480 -192 -860 -457 -1079
-752 -76 -104 -144 -231 -172 -325 -27 -90 -25 -213 5 -300 72 -209 224 -368
609 -638 l123 -86 -53 -31 c-340 -198 -500 -361 -552 -566 -50 -193 24 -398
167 -468 127 -63 343 -52 515 25 200 90 367 282 432 498 l23 73 38 -72 c67
-128 127 -172 239 -174 54 -1 73 4 111 26 44 26 87 68 108 106 8 14 14 11 49
-20 73 -66 165 -73 241 -18 46 34 141 145 141 166 0 7 5 14 10 14 6 0 10 -10
10 -22 0 -33 35 -85 72 -108 114 -69 388 -1 530 132 l57 53 30 -27 c31 -27 87
-48 131 -48 38 0 137 33 215 71 85 42 191 142 231 219 27 50 29 64 29 158 0
124 -12 117 190 117 117 0 152 -4 210 -22 129 -41 220 -124 232 -212 7 -54
-14 -93 -81 -147 -79 -62 -86 -118 -23 -177 28 -26 37 -29 78 -25 140 14 280
165 296 322 24 236 -170 477 -447 556 -144 41 -359 37 -508 -10 -35 -11 -68
-18 -72 -15 -5 3 -16 29 -26 58 -27 79 -24 175 9 280 33 104 27 141 -29 183
-65 50 -245 49 -330 -1 -38 -22 -46 -33 -62 -88 -11 -34 -23 -78 -27 -97 -7
-34 -92 -211 -134 -280 l-21 -35 0 45 c0 25 9 77 21 115 39 133 38 154 -12
203 -44 43 -115 57 -220 43 -126 -17 -161 -43 -185 -137 -16 -60 -49 -145
-108 -279 -34 -76 -56 -105 -56 -71 0 17 -52 60 -93 75 -16 6 -27 18 -27 29 0
43 -32 121 -65 160 -28 32 -50 46 -93 59 l-57 17 35 9 c219 61 366 127 495
222 390 288 550 772 354 1068 -30 45 -105 123 -147 153 -169 118 -480 181
-757 154z m188 -97 c-29 -2 -77 -2 -105 0 -29 2 -6 3 52 3 58 0 81 -1 53 -3z
m-185 -10 c-10 -2 -28 -2 -40 0 -13 2 -5 4 17 4 22 1 32 -1 23 -4z m310 0
c-10 -2 -28 -2 -40 0 -13 2 -5 4 17 4 22 1 32 -1 23 -4z m-430 -10 c-23 -6
-23 -21 -1 -25 9 -2 -18 -3 -61 -4 -42 -1 -75 0 -73 2 5 6 121 32 137 32 10 0
9 -2 -2 -5z m581 -11 c37 -11 60 -22 53 -26 -6 -4 -20 -2 -31 4 -11 5 -28 10
-38 10 -23 1 -83 28 -63 29 8 1 44 -7 79 -17z m-69 -12 c0 -5 -4 -10 -10 -10
-5 0 -10 5 -10 10 0 6 5 10 10 10 6 0 10 -4 10 -10z m-652 -22 c6 -6 31 -15
54 -19 38 -6 36 -7 -19 -5 -60 1 -78 8 -50 19 6 3 -4 4 -23 1 -27 -3 -31 -2
-15 5 28 13 39 13 53 -1z m112 2 c0 -5 -12 -10 -26 -10 -14 0 -23 4 -19 10 3
6 15 10 26 10 10 0 19 -4 19 -10z m613 3 c10 -9 -13 -33 -32 -32 -12 0 -11 2
4 9 18 8 17 9 -8 9 -16 1 -26 5 -22 11 7 11 48 14 58 3z m112 -13 c4 -6 -12
-10 -42 -9 -39 1 -43 3 -23 9 36 11 58 11 65 0z m-921 -8 c2 -4 -12 -9 -32
-10 -29 -1 -33 1 -17 8 26 11 43 12 49 2z m236 -2 c0 -5 -4 -10 -10 -10 -5 0
-10 5 -10 10 0 6 5 10 10 10 6 0 10 -4 10 -10z m-336 -35 c-10 -8 -28 -15 -40
-15 -11 0 -29 -7 -40 -15 -20 -15 -55 -21 -38 -6 10 9 113 50 128 50 6 1 1 -6
-10 -14z m1086 11 c0 -2 -7 -6 -15 -10 -8 -3 -15 -1 -15 4 0 6 7 10 15 10 8 0
15 -2 15 -4z m40 -22 c0 -2 -7 -4 -15 -4 -8 0 -15 4 -15 10 0 5 7 7 15 4 8 -4
15 -8 15 -10z m-1110 -14 c0 -5 -2 -10 -4 -10 -3 0 -8 5 -11 10 -3 6 -1 10 4
10 6 0 11 -4 11 -10z m1060 6 c0 -3 -4 -8 -10 -11 -5 -3 -10 -1 -10 4 0 6 5
11 10 11 6 0 10 -2 10 -4z m105 -34 c63 -56 79 -80 65 -97 -9 -11 -10 -18 -1
-29 9 -10 8 -16 -4 -26 -13 -10 -15 -9 -17 11 0 13 0 35 1 49 2 24 -53 100
-64 89 -11 -11 9 -48 28 -51 11 -2 22 -8 24 -14 2 -7 -6 -10 -22 -7 -14 3 -25
9 -25 14 0 17 -20 9 -21 -8 0 -10 -3 -13 -5 -6 -3 6 -1 28 5 47 8 33 7 36 -10
36 -11 0 -17 5 -14 10 10 16 28 11 60 -18z m-1230 8 c-27 -12 -43 -12 -25 0 8
5 22 9 30 9 10 0 8 -3 -5 -9z m-95 -10 c0 -5 -2 -10 -4 -10 -3 0 -8 5 -11 10
-3 6 -1 10 4 10 6 0 11 -4 11 -10z m1243 3 c-7 -2 -21 -2 -30 0 -10 3 -4 5 12
5 17 0 24 -2 18 -5z m-1283 -18 c0 -8 -8 -15 -19 -15 -11 0 -18 -6 -17 -16 0
-9 -6 -19 -14 -22 -13 -5 -13 -3 -1 11 17 21 8 21 -46 1 -23 -9 -40 -20 -37
-25 6 -11 1 -11 -21 -3 -11 5 10 18 67 44 46 21 84 38 86 39 1 1 2 -6 2 -14z
m913 8 c-7 -2 -21 -2 -30 0 -10 3 -4 5 12 5 17 0 24 -2 18 -5z m84 -9 c-3 -3
-12 -4 -19 -1 -8 3 -5 6 6 6 11 1 17 -2 13 -5z m-957 -14 c0 -5 -8 -10 -17
-10 -15 0 -16 2 -3 10 19 12 20 12 20 0z m910 2 c0 -5 -17 -8 -37 -7 -21 2
-47 -2 -58 -6 -13 -6 10 -8 65 -6 47 2 75 2 63 0 -27 -5 -30 -20 -5 -26 9 -2
1 -2 -18 1 -19 3 -87 6 -152 6 -64 1 -120 4 -124 9 -4 4 11 7 34 7 55 0 54 18
0 22 -24 2 19 4 95 6 75 1 137 -2 137 -6z m-926 -28 c26 -10 18 -19 -18 -20
-26 0 -31 2 -22 12 13 15 18 16 40 8z m-97 -20 c-3 -3 -12 -4 -19 -1 -8 3 -5
6 6 6 11 1 17 -2 13 -5z m448 -14 c14 -6 7 -8 -25 -7 -34 2 -45 -2 -45 -13 0
-9 11 -16 30 -18 23 -2 27 0 15 8 -11 7 -7 8 18 4 21 -4 32 -3 32 5 0 7 8 11
18 10 34 -3 46 4 17 10 -18 4 6 7 60 7 l90 1 -65 -13 c-36 -7 -96 -22 -135
-34 -64 -19 -118 -33 -87 -23 17 6 15 23 -3 23 -21 0 -19 38 3 43 27 7 55 6
77 -3z m833 -12 c17 -9 28 -22 29 -38 1 -14 0 -19 -4 -10 -13 31 -46 47 -90
43 -24 -2 -43 1 -43 5 0 5 -14 9 -31 10 -17 0 -34 3 -37 6 -11 12 149 -3 176
-16z m32 12 c0 -5 -2 -10 -4 -10 -3 0 -8 5 -11 10 -3 6 -1 10 4 10 6 0 11 -4
11 -10z m-1468 -35 c-17 -14 -38 -25 -48 -25 -11 0 -26 -4 -33 -9 -12 -8 -11
-13 10 -30 13 -11 19 -20 13 -21 -6 0 -17 7 -24 15 -12 14 -15 14 -36 0 -13
-8 -30 -15 -39 -15 -8 0 -15 -4 -15 -10 0 -5 -7 -10 -15 -10 -8 0 -24 -10 -37
-23 -36 -35 -76 -58 -83 -47 -3 6 -2 10 2 10 5 0 20 10 34 23 27 23 50 38 114
71 22 12 42 23 45 26 11 11 60 40 60 35 0 -2 15 4 33 15 45 28 54 25 19 -5z
m1700 -3 c16 -26 16 -28 -2 -29 -12 -1 -17 3 -14 12 3 7 1 16 -5 20 -6 3 -11
10 -11 16 0 18 16 9 32 -19z m-272 -24 c0 -5 -7 -2 -16 6 -8 9 -22 16 -30 16
-8 0 -12 4 -9 10 7 11 55 -17 55 -32z m-1410 2 c-24 -15 -36 -11 -14 4 10 8
21 12 24 10 2 -3 -2 -9 -10 -14z m1230 -33 c142 -44 180 -83 180 -187 -1 -106
-54 -211 -169 -334 -133 -140 -310 -242 -521 -301 -251 -69 -448 -56 -550 37
-80 74 -127 86 -180 48 -79 -56 -55 -179 56 -287 64 -61 123 -96 224 -131 70
-24 87 -26 261 -26 l187 -1 -60 -32 c-70 -37 -127 -83 -211 -168 -44 -45 -92
-80 -162 -118 -55 -30 -125 -68 -157 -86 -68 -38 -78 -38 -109 -5 -13 14 -71
63 -129 107 -241 186 -349 290 -395 382 -53 106 -38 235 43 370 60 100 210
240 373 348 322 213 671 358 950 396 95 13 311 6 369 -12z m245 13 c-4 -6 -1
-18 6 -26 18 -22 4 -28 -20 -7 -26 21 -26 30 -3 36 9 3 18 5 20 6 2 0 0 -4 -3
-9z m51 -21 c1 -27 0 -29 -14 -16 -8 9 -12 23 -9 31 10 26 22 18 23 -15z
m-1127 -4 c-19 -7 -42 -16 -51 -20 -11 -4 -18 -3 -18 4 0 6 9 11 19 11 10 0
21 6 24 14 4 9 15 12 32 8 l27 -5 -33 -12z m1326 -100 c3 -27 1 -63 -4 -80 -7
-25 -9 -16 -9 45 0 41 -5 88 -11 103 -6 16 -11 36 -11 45 1 30 29 -61 35 -113z
m-1830 74 c4 -6 13 -8 21 -5 8 3 14 0 14 -5 0 -7 -9 -9 -22 -5 -13 3 -29 6
-35 6 -7 0 -13 5 -13 10 0 13 27 13 35 -1z m430 -10 c4 -6 1 -9 -6 -8 -8 2
-27 -4 -44 -13 -42 -22 -79 -32 -71 -20 3 5 19 12 36 16 17 3 29 10 26 15 -4
5 4 12 16 14 13 2 26 5 30 6 4 0 10 -4 13 -10z m1189 -30 c3 -17 6 -71 6 -118
0 -72 -4 -96 -24 -137 -14 -27 -25 -41 -25 -32 -1 9 3 19 7 22 29 18 40 197
16 274 -3 12 -2 22 4 22 5 0 12 -14 16 -31z m-1277 15 c-3 -3 -12 -4 -19 -1
-8 3 -5 6 6 6 11 1 17 -2 13 -5z m-87 -12 c0 -12 -49 -37 -57 -29 -8 8 26 36
45 37 6 0 12 -4 12 -8z m1547 -109 c-2 -21 -4 -4 -4 37 0 41 2 58 4 38 2 -21
2 -55 0 -75z m-1937 62 c-7 -8 -21 -15 -32 -15 -17 0 -16 3 9 26 28 26 46 17
23 -11z m425 15 c-3 -5 -13 -10 -21 -10 -8 0 -14 -4 -14 -9 0 -5 -17 -16 -37
-25 -21 -9 -56 -27 -78 -41 -22 -14 -47 -28 -55 -32 -8 -3 -32 -17 -52 -30
-24 -14 -39 -19 -44 -12 -3 6 3 13 15 16 12 3 21 9 21 13 0 4 14 10 31 14 17
3 52 23 78 44 54 46 77 60 67 44 -13 -22 10 -12 34 13 22 24 68 36 55 15z
m-518 -26 c-3 -3 -12 -4 -19 -1 -8 3 -5 6 6 6 11 1 17 -2 13 -5z m363 -19 c-7
-9 -15 -13 -19 -10 -3 3 1 10 9 15 21 14 24 12 10 -5z m-428 -28 c-7 -8 -28
-22 -47 -33 -29 -15 -35 -23 -30 -41 3 -13 1 -23 -5 -23 -6 0 -8 5 -5 10 13
21 -23 9 -38 -12 -11 -16 -16 -18 -16 -8 -1 15 23 37 103 100 38 30 60 34 38
7z m278 -57 c0 -5 -7 -7 -15 -4 -8 4 -15 8 -15 10 0 2 7 4 15 4 8 0 15 -4 15
-10z m1840 -7 c-2 -23 -29 -105 -29 -88 -1 36 11 95 20 95 5 0 9 -3 9 -7z
m-1850 -33 c0 -5 -4 -10 -10 -10 -5 0 -10 5 -10 10 0 6 5 10 10 10 6 0 10 -4
10 -10z m-433 -40 c-11 -29 -37 -42 -37 -19 0 10 37 49 46 49 1 0 -3 -13 -9
-30z m80 24 c-3 -3 -12 -4 -19 -1 -8 3 -5 6 6 6 11 1 17 -2 13 -5z m331 -11
c-10 -2 -18 -8 -18 -13 0 -4 -9 -10 -20 -13 -11 -3 -20 -1 -20 3 0 13 32 30
55 29 17 -1 17 -2 3 -6z m1679 -25 c-3 -8 -6 -5 -6 6 -1 11 2 17 5 13 3 -3 4
-12 1 -19z m-2127 -33 c11 -13 9 -15 -11 -13 -21 3 -23 -1 -24 -34 0 -20 -4
-40 -8 -44 -4 -5 -5 -1 -1 9 8 21 -2 22 -23 1 -9 -8 -22 -13 -29 -10 -7 3 -16
-4 -20 -17 -7 -21 -39 -61 -76 -95 -10 -9 -18 -22 -18 -28 0 -7 -7 -15 -16
-18 -15 -6 -14 -3 1 21 10 16 25 36 34 45 26 27 39 45 66 84 14 20 25 32 25
25 0 -6 4 -11 10 -11 5 0 9 10 7 23 -2 17 3 22 21 20 12 -2 22 2 22 7 0 6 -4
10 -10 10 -5 0 -2 9 7 20 21 24 27 25 43 5z m2120 -6 c0 -5 -4 -9 -10 -9 -5 0
-10 7 -10 16 0 8 5 12 10 9 6 -3 10 -10 10 -16z m-1812 -39 c-16 -16 -31 -30
-34 -30 -9 0 -157 -156 -172 -182 -16 -27 -31 -36 -33 -20 0 4 -2 16 -4 27
-10 57 -13 79 -9 68 4 -10 10 -10 24 -1 24 15 41 1 19 -15 -9 -7 -18 -24 -21
-40 -4 -22 -3 -25 8 -16 8 6 14 17 14 24 0 7 11 20 25 29 13 9 32 30 40 46 9
17 20 30 26 30 10 0 15 4 63 46 23 20 26 28 15 34 -14 9 -40 -12 -52 -40 -3
-9 -6 -3 -6 13 -1 21 5 30 26 38 15 6 35 8 45 6 10 -3 21 -1 24 4 3 5 11 9 19
9 8 0 1 -13 -17 -30z m1755 -12 c-3 -15 -9 -25 -14 -22 -5 3 -6 -10 -4 -28 4
-26 3 -29 -4 -13 -10 20 -10 19 -17 -2 -3 -13 -10 -23 -15 -23 -5 0 -9 -7 -9
-15 0 -8 -4 -15 -10 -15 -17 0 -11 20 20 65 17 24 30 48 30 54 0 6 4 11 10 11
5 0 7 8 3 18 -4 12 -3 14 5 7 6 -5 8 -22 5 -37z m177 32 c0 -5 -4 -10 -10 -10
-5 0 -10 5 -10 10 0 6 5 10 10 10 6 0 10 -4 10 -10z m32 -22 c-8 -18 -17 -27
-19 -21 -5 15 14 53 27 53 4 0 1 -14 -8 -32z m-38 -50 c-5 -8 -2 -9 10 -5 15
6 14 2 -5 -31 -33 -54 -71 -103 -76 -98 -7 7 18 49 41 67 11 9 21 30 22 45 3
35 3 34 10 34 3 0 2 -5 -2 -12z m-2071 -27 c-20 -20 -29 -24 -31 -14 -5 20 17
43 40 43 17 0 16 -3 -9 -29z m-273 -41 c0 -5 -7 -10 -16 -10 -8 0 -12 5 -9 10
3 6 10 10 16 10 5 0 9 -4 9 -10z m2251 -37 c-8 -15 -10 -15 -11 -2 0 17 10 32
18 25 2 -3 -1 -13 -7 -23z m-181 -2 c0 -5 -16 -19 -35 -32 -20 -13 -38 -34
-41 -46 -4 -13 -12 -23 -19 -23 -7 0 -18 -7 -25 -15 -7 -8 -18 -15 -25 -15 -6
0 8 20 32 45 23 25 47 45 53 45 5 0 17 11 26 25 16 25 34 33 34 16z m-2154
-74 c-1 -46 -4 -53 -18 -49 -19 5 -25 32 -7 32 5 0 9 8 8 18 -2 15 9 52 16 52
1 0 2 -24 1 -53z m2154 33 c0 -5 -5 -10 -11 -10 -5 0 -7 5 -4 10 3 6 8 10 11
10 2 0 4 -4 4 -10z m183 -10 c-13 -5 -23 -18 -23 -29 0 -11 -10 -27 -22 -35
-12 -9 -19 -16 -16 -16 4 0 -4 -12 -18 -27 -13 -14 -27 -23 -31 -20 -3 4 3 17
14 30 16 17 19 27 12 45 -9 24 -3 52 12 52 5 0 9 -9 9 -21 0 -12 5 -19 13 -16
6 2 12 10 12 18 0 15 20 28 45 28 8 0 5 -4 -7 -9z m-2373 -29 c0 -6 -5 -13
-11 -17 -6 -3 -18 -20 -26 -38 l-14 -31 5 33 c5 32 23 61 39 62 4 0 7 -4 7 -9z
m300 -24 c0 -5 -4 -5 -10 -2 -5 3 -10 14 -10 23 0 15 2 15 10 2 5 -8 10 -19
10 -23z m-56 -82 c-18 -39 -34 -83 -35 -100 l-2 -30 -4 28 c-6 35 21 114 50
149 12 14 23 26 24 25 1 -1 -14 -34 -33 -72z m1787 38 c12 -15 12 -16 -3 -11
-10 4 -19 1 -22 -8 -3 -8 -14 -14 -25 -14 -11 0 -22 -6 -24 -12 -4 -10 -6 -10
-6 -1 -1 6 13 20 29 30 17 9 30 21 30 25 0 12 6 10 21 -9z m229 7 c0 -5 -7
-10 -15 -10 -17 0 -20 -16 -5 -25 20 -13 9 -32 -37 -65 -27 -19 -51 -38 -54
-42 -3 -5 -12 -2 -19 7 -11 13 -10 15 4 9 9 -3 16 -1 16 4 0 6 16 19 36 28 42
20 54 43 30 56 -17 9 -16 11 1 28 20 21 43 26 43 10z m-2316 -56 c-4 -17 -3
-25 3 -21 6 4 9 -18 9 -56 0 -34 -2 -52 -4 -39 -6 39 -20 24 -15 -17 3 -23 1
-41 -6 -45 -16 -11 -13 74 4 104 17 29 18 40 6 40 -12 0 -29 -47 -37 -102 -7
-52 2 -122 15 -114 5 3 6 18 3 33 -3 22 -2 25 8 16 8 -8 10 -27 5 -63 -8 -60
-16 -56 -34 18 -13 54 -8 169 9 201 5 9 11 28 15 44 3 15 10 27 15 27 6 0 8
-11 4 -26z m2096 7 c0 -10 -50 -25 -58 -16 -3 3 2 5 11 5 10 0 17 5 17 10 0 6
7 10 15 10 8 0 15 -4 15 -9z m-103 -17 c-3 -3 -12 -4 -19 -1 -8 3 -5 6 6 6 11
1 17 -2 13 -5z m213 -24 c0 -5 -2 -10 -4 -10 -3 0 -8 5 -11 10 -3 6 -1 10 4
10 6 0 11 -4 11 -10z m-270 -4 c0 -9 -79 -54 -84 -48 -4 3 10 16 31 29 36 21
53 28 53 19z m-985 -26 c-3 -5 -10 -10 -16 -10 -5 0 -9 5 -9 10 0 6 7 10 16
10 8 0 12 -4 9 -10z m975 -20 c-24 -15 -36 -11 -14 4 10 8 21 12 24 10 2 -3
-2 -9 -10 -14z m-945 -10 c-3 -4 1 -11 7 -14 10 -5 10 -7 1 -12 -14 -6 -18
-35 -5 -32 4 0 15 -2 25 -7 26 -11 34 3 11 20 -29 22 3 19 34 -4 15 -10 34
-21 42 -24 8 -2 3 -3 -12 -1 -20 2 -31 -2 -39 -18 -9 -17 -9 -23 0 -26 6 -2
11 -8 11 -13 0 -5 -17 4 -39 19 -24 17 -34 30 -27 34 7 5 6 8 -4 8 -17 0 -56
58 -46 67 3 4 6 1 6 -5 0 -7 5 -12 10 -12 6 0 10 9 10 21 0 11 5 17 10 14 6
-4 8 -10 5 -15z m1185 -20 c-30 -23 -41 -25 -34 -6 3 8 15 17 27 19 12 2 24 5
27 5 3 1 -6 -7 -20 -18z m-390 0 c0 -5 -8 -10 -17 -10 -16 -1 -17 -2 -2 -13
14 -10 6 -12 -44 -13 l-60 -1 59 22 c32 13 60 23 62 24 1 0 2 -3 2 -9z m-30
-50 c20 -6 15 -8 -25 -9 -36 0 -46 2 -35 9 17 11 25 11 60 0z m-143 -6 c-3 -3
-12 -4 -19 -1 -8 3 -5 6 6 6 11 1 17 -2 13 -5z m-1590 -66 c-2 -13 -4 -3 -4
22 0 25 2 35 4 23 2 -13 2 -33 0 -45z m1928 56 c13 -5 14 -9 4 -15 -8 -4 -10
-11 -6 -16 4 -4 17 -2 27 5 23 14 49 17 35 3 -15 -14 -136 -54 -142 -47 -4 3
0 6 7 6 11 0 11 3 2 12 -14 14 -16 48 -3 48 5 0 11 -9 14 -20 4 -14 13 -20 34
-20 19 0 24 3 14 9 -11 7 -11 10 0 17 10 6 6 10 -16 15 -22 5 -24 7 -8 8 12 0
29 -2 38 -5z m105 -4 c-8 -5 -19 -10 -25 -10 -5 0 -3 5 5 10 8 5 20 10 25 10
6 0 3 -5 -5 -10z m-545 -10 c4 -6 -12 -10 -42 -9 -36 0 -43 3 -28 9 28 12 63
12 70 0z m-272 -7 c-13 -2 -33 -2 -45 0 -13 2 -3 4 22 4 25 0 35 -2 23 -4z
m145 -10 c-21 -2 -57 -2 -80 0 -24 2 -7 4 37 4 44 0 63 -2 43 -4z m162 -2 c0
-11 -35 -21 -74 -21 -36 0 -28 10 16 20 46 11 58 11 58 1z m1613 -12 c21 -12
21 -18 2 -60 l-16 -34 6 42 7 42 -39 6 c-63 10 -86 26 -28 19 28 -3 58 -10 68
-15z m-1913 1 c0 -5 -13 -10 -30 -10 -16 0 -30 5 -30 10 0 6 14 10 30 10 17 0
30 -4 30 -10z m1780 0 c0 -5 14 -10 30 -10 17 0 30 -3 30 -7 0 -5 -30 -9 -68
-9 -51 -1 -59 0 -32 6 32 7 17 15 -19 11 -7 -2 -10 2 -6 8 8 14 65 14 65 1z
m-1653 -17 c-20 -2 -52 -2 -70 0 -17 2 0 4 38 4 39 0 53 -2 32 -4z m1573 -7
c0 -13 -38 -86 -45 -86 -1 0 0 11 3 25 2 14 8 25 13 25 5 0 9 11 9 25 0 14 5
25 10 25 6 0 10 -6 10 -14z m-1727 -3 c-7 -2 -21 -2 -30 0 -10 3 -4 5 12 5 17
0 24 -2 18 -5z m-65 -14 c-9 -6 -7 -9 7 -9 11 0 33 -7 49 -15 15 -8 51 -15 80
-15 56 0 96 -8 96 -20 0 -7 -155 13 -198 26 -12 3 -39 15 -59 25 l-36 19 37
-2 c23 -1 32 -4 24 -9z m225 4 c-7 -2 -21 -2 -30 0 -10 3 -4 5 12 5 17 0 24
-2 18 -5z m296 -9 c2 -2 -8 -4 -22 -4 -15 0 -27 -3 -27 -7 0 -5 -37 -8 -83 -9
-48 0 -72 3 -57 7 14 4 50 8 80 8 41 1 51 4 40 12 -11 7 -4 8 25 3 22 -4 42
-8 44 -10z m66 6 c-4 -6 6 -10 22 -9 24 0 25 1 8 8 -14 6 -8 8 23 7 23 0 42
-2 42 -3 0 -6 -112 -34 -127 -31 -15 3 -15 4 1 21 19 18 41 24 31 7z m-355
-20 c0 -12 -37 -12 -65 0 -15 7 -10 9 23 9 23 1 42 -3 42 -9z m1573 -28 c-3
-12 -9 -22 -14 -22 -12 0 -11 7 2 32 13 25 20 19 12 -10z m-2668 -54 c4 -10 3
-18 -3 -18 -12 0 -22 35 -21 70 1 23 2 23 9 -5 4 -16 11 -38 15 -47z m1393 67
c-9 -9 -218 -32 -218 -24 0 8 46 16 125 22 76 7 98 7 93 2z m-1662 -57 c3 -11
3 -22 0 -25 -3 -4 -6 0 -6 7 0 7 -8 22 -17 32 -15 17 -15 18 0 13 9 -4 19 -16
23 -27z m3124 12 c0 -5 -2 -10 -4 -10 -3 0 -8 5 -11 10 -3 6 -1 10 4 10 6 0
11 -4 11 -10z m-720 -10 c0 -5 -9 -10 -20 -10 -10 0 -28 -10 -40 -22 -11 -12
-20 -16 -20 -9 0 7 6 18 13 25 23 23 67 34 67 16z m167 -37 c-3 -10 -5 -4 -5
12 0 17 2 24 5 18 2 -7 2 -21 0 -30z m308 0 c-5 -15 -7 -33 -6 -39 0 -6 -6
-17 -14 -24 -8 -7 -15 -19 -15 -26 0 -8 -4 -14 -10 -14 -5 0 0 24 11 53 12 28
24 60 26 70 3 10 8 16 10 13 3 -3 2 -18 -2 -33z m193 -7 c-2 -38 -18 -39 -18
-2 0 20 7 36 17 36 2 0 3 -15 1 -34z m30 -75 c0 -60 5 -118 11 -129 15 -29 14
-42 -4 -36 -10 4 -15 21 -16 53 -1 25 -4 57 -9 71 -7 24 -7 23 -13 -10 -4 -19
-6 -42 -5 -50 3 -30 -2 -60 -11 -60 -12 0 -1 99 15 139 8 18 14 48 14 66 0 31
8 65 15 65 2 0 3 -49 3 -109z m-703 88 c4 -6 5 -12 2 -15 -7 -7 -37 7 -37 17
0 13 27 11 35 -2z m-2115 -90 c0 -3 -8 -9 -18 -11 -15 -4 -17 2 -18 44 l-1 50
19 -38 c10 -21 18 -41 18 -45z m54 4 c25 -35 42 -63 36 -63 -5 0 -14 9 -20 20
-6 11 -18 20 -26 20 -10 0 -14 6 -11 14 3 8 -1 17 -9 20 -8 3 -14 14 -14 25 0
11 -5 22 -10 24 -6 3 -6 5 -1 4 5 -1 30 -30 55 -64z m-265 29 c-11 -30 -11
-35 1 -27 5 3 8 0 5 -7 -2 -7 12 -23 32 -36 28 -18 38 -20 45 -10 5 8 7 0 6
-22 -3 -34 -2 -34 37 -35 33 0 40 -4 41 -20 3 -49 5 -56 22 -62 16 -6 62 -49
62 -59 0 -2 -22 12 -49 32 -33 25 -47 42 -43 52 4 11 1 14 -11 9 -21 -8 -21
-3 -1 18 23 23 8 32 -16 10 -18 -17 -20 -17 -14 -2 3 10 1 17 -5 17 -6 0 -11
-5 -11 -11 0 -6 -15 7 -32 28 -18 21 -47 52 -63 68 -17 17 -38 42 -47 56 l-17
27 34 -1 c30 -1 32 -3 24 -25z m2248 -44 c-1 -40 -3 -65 -5 -55 -6 29 -17 19
-31 -28 -7 -24 -22 -54 -32 -66 -10 -12 -19 -29 -19 -38 0 -9 -18 -52 -40 -96
-26 -51 -39 -88 -35 -102 3 -12 0 -25 -7 -29 -7 -4 -8 -3 -4 5 4 6 3 17 -2 24
-7 8 -3 29 15 67 39 84 84 183 92 205 5 11 18 41 30 67 12 26 25 63 28 83 3
19 7 35 8 35 2 0 3 -33 2 -72z m203 62 c0 -5 -9 -10 -20 -10 -11 0 -20 5 -20
10 0 6 9 10 20 10 11 0 20 -4 20 -10z m40 0 c0 -5 -4 -10 -10 -10 -5 0 -10 5
-10 10 0 6 5 10 10 10 6 0 10 -4 10 -10z m-21 -42 c-1 -13 -5 -34 -9 -48 -7
-20 -8 -16 -9 23 -1 26 4 47 9 47 6 0 10 -10 9 -22z m-37 -43 c-6 -30 -6 -30
-12 -5 -8 29 -1 55 11 43 4 -4 5 -21 1 -38z m545 23 c-3 -8 -6 -5 -6 6 -1 11
2 17 5 13 3 -3 4 -12 1 -19z m-1367 -18 c0 -5 -16 -12 -35 -16 -47 -8 -44 -37
5 -45 l35 -6 -42 -2 c-32 -1 -43 3 -43 14 0 8 -4 15 -10 15 -5 0 -10 -4 -10
-10 0 -5 -8 -10 -18 -10 -20 0 -92 -62 -92 -79 0 -6 -9 -11 -21 -11 -18 0 -15
5 18 39 21 21 56 48 78 60 22 12 47 25 55 30 8 4 24 13 35 19 25 14 45 15 45
2z m159 -94 c-1 -20 -2 -20 -6 -1 -3 11 -21 34 -39 50 -19 17 -34 37 -34 45 1
9 18 -4 40 -29 23 -24 39 -53 39 -65z m1111 41 c0 -8 -3 -8 -12 1 -18 18 -51
15 -44 -3 3 -8 1 -15 -5 -15 -6 0 -7 -4 -4 -10 6 -10 -35 -90 -47 -90 -11 0
-10 18 2 25 6 3 10 15 10 27 0 16 -3 18 -14 9 -20 -17 -30 -62 -15 -72 9 -5 8
-16 -6 -45 -20 -42 -43 -69 -51 -61 -4 3 6 21 20 40 17 22 26 45 24 63 -4 65
2 89 26 100 20 9 23 9 19 -2 -3 -8 2 -14 11 -14 9 0 16 6 14 13 -2 6 4 32 12
56 l14 43 23 -26 c13 -15 23 -32 23 -39z m-2600 -4 c0 -7 -4 -13 -10 -13 -5 0
-10 6 -10 14 0 8 -3 23 -6 33 -6 16 -5 16 9 -2 9 -11 17 -26 17 -32z m1330 17
c0 -5 -4 -10 -9 -10 -6 0 -13 5 -16 10 -3 6 1 10 9 10 9 0 16 -4 16 -10z
m-1286 -15 c-4 -8 -10 -15 -15 -15 -4 0 -6 7 -3 15 4 8 10 15 15 15 4 0 6 -7
3 -15z m1386 -5 c0 -5 -2 -10 -4 -10 -3 0 -8 5 -11 10 -3 6 -1 10 4 10 6 0 11
-4 11 -10z m1026 -29 c-2 -9 -7 -26 -11 -38 -3 -12 -16 -23 -28 -25 -13 -2
-30 -19 -44 -43 -12 -22 -23 -36 -23 -31 0 18 24 76 32 76 4 0 8 6 8 13 0 7
10 24 23 37 12 14 21 28 20 32 -2 4 4 5 12 1 9 -3 14 -13 11 -22z m-2332 -25
c70 -53 137 -116 122 -116 -8 0 -17 4 -20 9 -3 5 -15 7 -27 4 -11 -3 -32 0
-45 8 -20 10 -25 19 -22 41 4 24 2 27 -17 22 -11 -3 -32 0 -45 5 -22 9 -20 10
13 5 20 -4 37 -2 37 2 -1 16 -50 45 -63 38 -7 -5 -7 -1 2 10 8 9 17 13 20 9 3
-5 24 -21 45 -37z m1839 1 c5 -33 4 -36 -10 -22 -10 10 -13 24 -9 41 8 32 12
29 19 -19z m226 -155 c1 -13 -3 -21 -8 -17 -6 3 -9 24 -9 46 0 22 -5 46 -12
52 -10 10 -11 0 -8 -45 3 -31 1 -55 -4 -52 -12 7 -10 122 2 129 6 3 11 25 11
48 1 29 5 15 14 -48 7 -49 14 -100 14 -113z m-782 146 c-3 -7 -5 -2 -5 12 0
14 2 19 5 13 2 -7 2 -19 0 -25z m1197 -28 c4 -30 3 -37 -3 -20 -17 53 -22 85
-13 75 6 -5 13 -30 16 -55z m-1434 21 c0 -5 -7 -11 -15 -15 -15 -5 -20 5 -8
17 9 10 23 9 23 -2z m330 -17 c0 -9 -5 -14 -12 -12 -18 6 -21 28 -4 28 9 0 16
-7 16 -16z m-1530 -14 c0 -5 -4 -10 -10 -10 -5 0 -10 5 -10 10 0 6 5 10 10 10
6 0 10 -4 10 -10z m1120 -18 c0 -8 -1 -13 -3 -11 -1 2 -9 12 -16 22 -12 15
-12 17 3 11 9 -3 16 -13 16 -22z m145 18 c-3 -5 -13 -10 -21 -10 -10 0 -14
-12 -14 -40 0 -22 -4 -40 -10 -40 -14 0 -12 68 3 85 14 16 52 20 42 5z m56 3
c-8 -3 -27 -19 -43 -35 -18 -18 -28 -24 -28 -14 0 18 47 56 69 55 13 0 13 -2
2 -6z m113 -77 c1 -41 -2 -72 -5 -70 -7 4 -29 -41 -29 -60 0 -7 -10 -21 -21
-32 -22 -19 -22 -19 -11 1 33 66 38 84 48 178 4 37 9 65 12 62 3 -2 6 -38 6
-79z m603 47 c-3 -10 -5 -4 -5 12 0 17 2 24 5 18 2 -7 2 -21 0 -30z m-30 5
c-3 -8 -6 -5 -6 6 -1 11 2 17 5 13 3 -3 4 -12 1 -19z m73 -9 c0 -11 -4 -17
-10 -14 -5 3 -10 15 -10 26 0 11 5 17 10 14 6 -3 10 -15 10 -26z m-966 -39
c-3 -3 -11 3 -18 13 -16 21 -26 22 -26 3 0 -9 -9 -14 -20 -13 -25 2 -25 1 7
31 l27 25 18 -26 c9 -15 15 -30 12 -33z m1703 15 c-16 -17 -17 -14 -10 14 4
15 8 19 13 10 5 -6 3 -18 -3 -24z m-903 -22 c-6 -27 -6 -27 9 -8 21 26 21 12
1 -31 -23 -47 -45 -45 -37 3 5 31 20 61 31 63 1 0 0 -12 -4 -27z m766 -36 c0
-26 -4 -21 -24 28 l-16 40 20 -24 c11 -13 20 -32 20 -44z m585 53 c27 -11 -49
-11 -85 0 -21 7 -17 8 20 8 25 0 54 -3 65 -8z m98 3 c-13 -2 -33 -2 -45 0 -13
2 -3 4 22 4 25 0 35 -2 23 -4z m-523 -13 c0 -5 -5 -10 -11 -10 -5 0 -7 5 -4
10 3 6 8 10 11 10 2 0 4 -4 4 -10z m277 4 c-3 -3 -12 -4 -19 -1 -8 3 -5 6 6 6
11 1 17 -2 13 -5z m354 -5 c68 -22 125 -52 106 -57 -10 -2 -25 2 -33 9 -11 9
-18 10 -22 2 -4 -6 -25 -14 -47 -17 -38 -6 -38 -5 -10 5 17 6 37 13 45 16 18
5 -36 32 -90 43 -29 6 -31 8 -9 9 14 0 41 -4 60 -10z m-3431 -9 c0 -5 -4 -10
-10 -10 -5 0 -10 5 -10 10 0 6 5 10 10 10 6 0 10 -4 10 -10z m44 -3 c-7 -20
41 -68 63 -61 13 4 14 3 5 -3 -9 -7 -3 -15 23 -29 30 -16 46 -34 30 -34 -16 0
-131 88 -127 98 2 8 -2 10 -13 5 -16 -5 -15 -4 1 15 21 25 25 27 18 9z m1490
-1 c-5 -14 -34 -31 -34 -20 0 8 24 33 32 34 4 0 5 -6 2 -14z m84 -39 c2 -9 -1
-17 -7 -17 -6 0 -11 6 -11 14 0 14 -29 30 -38 21 -3 -3 -1 -5 5 -5 16 0 23
-38 7 -44 -8 -3 -11 0 -8 8 3 8 1 17 -5 21 -6 3 -11 -1 -11 -11 0 -14 -2 -14
-16 -3 -14 12 -14 14 0 25 9 6 16 19 16 29 0 16 2 15 32 -2 18 -11 34 -27 36
-36z m308 2 c-18 -41 -21 -26 -4 22 6 18 13 29 15 23 2 -6 -3 -26 -11 -45z
m98 34 c3 -10 7 -43 10 -73 l5 -55 -13 45 c-24 83 -26 100 -17 100 5 0 12 -8
15 -17z m646 2 c0 -8 -4 -15 -10 -15 -5 0 -10 7 -10 15 0 8 5 15 10 15 6 0 10
-7 10 -15z m-2580 -3 c0 -13 -12 -22 -22 -16 -10 6 -1 24 13 24 5 0 9 -4 9 -8z
m30 -2 c0 -5 -2 -10 -4 -10 -3 0 -8 5 -11 10 -3 6 -1 10 4 10 6 0 11 -4 11
-10z m871 -4 c-9 -11 -9 -15 1 -19 8 -2 9 -8 4 -13 -5 -5 -11 -4 -13 4 -6 17
-16 15 -43 -8 -12 -11 -27 -17 -33 -13 -11 7 31 42 51 43 6 0 12 5 12 10 0 6
7 10 16 10 13 0 14 -3 5 -14z m1332 -27 c-10 -16 -21 -29 -26 -29 -4 0 -15
-16 -23 -35 -18 -43 -50 -48 -64 -9 -14 37 -11 43 6 12 8 -16 19 -28 24 -28 5
0 25 29 45 65 20 36 41 63 46 59 5 -3 2 -18 -8 -35z m77 26 c0 -8 -5 -15 -11
-15 -5 0 -9 -8 -8 -17 1 -10 -1 -26 -6 -36 -4 -10 -5 -21 -1 -24 3 -4 6 1 6 9
0 9 7 19 15 22 14 5 13 1 -2 -24 -20 -35 -36 -21 -27 23 4 19 2 27 -8 27 -8 0
-9 3 -2 8 6 4 13 15 17 25 8 21 27 23 27 2z m600 5 c0 -5 -9 -10 -21 -10 -11
0 -17 5 -14 10 3 6 13 10 21 10 8 0 14 -4 14 -10z m-2645 -53 c11 -10 37 -33
59 -50 68 -56 92 -87 66 -87 -5 0 -10 5 -10 11 0 15 -22 35 -48 43 -12 4 -22
11 -22 16 0 21 -56 64 -85 65 -26 0 -30 4 -30 27 -1 27 -1 27 24 11 14 -9 35
-25 46 -36z m2465 41 c0 -7 -12 -21 -25 -31 -22 -15 -25 -16 -25 -2 0 8 7 15
15 15 8 0 15 7 15 15 0 8 5 15 10 15 6 0 10 -6 10 -12z m605 2 c3 -5 -1 -10
-9 -10 -9 0 -16 5 -16 10 0 6 4 10 9 10 6 0 13 -4 16 -10z m-2258 -22 c-3 -8
-6 -5 -6 6 -1 11 2 17 5 13 3 -3 4 -12 1 -19z m1744 2 c-24 -11 -46 -18 -48
-16 -7 7 50 34 72 35 11 0 0 -8 -24 -19z m-2796 0 c-3 -5 -10 -10 -16 -10 -5
0 -9 5 -9 10 0 6 7 10 16 10 8 0 12 -4 9 -10z m2885 0 c0 -5 -7 -10 -15 -10
-8 0 -15 5 -15 10 0 6 7 10 15 10 8 0 15 -4 15 -10z m-1492 -19 c3 -8 -1 -12
-9 -9 -7 2 -15 10 -17 17 -3 8 1 12 9 9 7 -2 15 -10 17 -17z m1450 0 c10 -6 7
-10 -13 -15 -30 -8 -41 -3 -30 13 7 13 25 14 43 2z m542 -1 c0 -9 -61 -30 -87
-30 -7 0 -13 -5 -13 -11 0 -7 -12 -9 -37 -4 -64 12 -278 22 -281 13 -2 -4 -19
-8 -37 -8 -19 0 -37 -4 -40 -10 -3 -5 -17 -10 -29 -10 -13 0 -40 -7 -61 -16
-31 -13 -36 -19 -30 -37 22 -70 36 -130 31 -135 -10 -9 -15 2 -25 54 -5 27
-15 63 -21 79 -11 28 -13 28 -20 10 l-9 -20 0 20 c-1 22 38 45 75 45 13 0 26
5 30 11 3 6 17 8 30 5 14 -4 24 -2 24 4 0 5 -6 10 -12 10 -7 0 -5 5 5 11 17
10 109 9 342 -5 52 -3 62 -2 40 4 -27 9 -27 9 10 5 22 -2 54 2 70 10 37 17 45
18 45 5z m95 -2 c14 -6 25 -15 25 -20 0 -4 6 -8 13 -8 14 -1 91 -70 84 -76 -2
-3 -19 9 -37 26 -18 16 -38 30 -44 30 -7 0 -22 11 -34 25 -22 25 -50 35 -36
13 4 -7 3 -8 -5 -4 -6 4 -9 12 -6 17 8 11 9 11 40 -3z m-2602 -5 c-7 -2 -19
-2 -25 0 -7 3 -2 5 12 5 14 0 19 -2 13 -5z m1664 0 c-4 -3 -2 -12 5 -20 6 -7
8 -17 4 -20 -8 -8 -26 16 -26 35 0 6 5 12 12 12 6 0 8 -3 5 -7z m-1547 -70
c-20 -36 -30 -48 -26 -30 7 28 48 99 54 92 2 -2 -11 -30 -28 -62z m478 -38
c-12 -54 -24 -93 -26 -86 -2 7 3 40 12 74 8 34 18 75 21 91 3 15 8 26 11 23 3
-2 -5 -48 -18 -102z m972 50 c0 -6 -18 -29 -41 -50 -22 -22 -52 -59 -67 -82
-30 -48 -38 -52 -47 -24 -4 13 10 43 41 93 26 40 53 84 62 97 l15 24 18 -24
c10 -13 19 -29 19 -34z m757 49 c-3 -3 -12 -4 -19 -1 -8 3 -5 6 6 6 11 1 17
-2 13 -5z m-3117 -20 c0 -8 -4 -12 -10 -9 -5 3 -10 10 -10 16 0 5 5 9 10 9 6
0 10 -7 10 -16z m1703 -9 c-7 -21 -13 -19 -13 6 0 11 4 18 10 14 5 -3 7 -12 3
-20z m986 19 c17 -4 31 -10 31 -14 0 -8 -67 4 -77 14 -8 8 7 8 46 0z m-2049
-36 c0 -2 -17 -4 -38 -5 l-37 -2 24 18 c20 16 27 17 38 6 7 -8 13 -15 13 -17z
m247 10 c-3 -8 -6 -5 -6 6 -1 11 2 17 5 13 3 -3 4 -12 1 -19z m2515 3 c11 -13
13 -22 6 -29 -7 -7 -3 -12 11 -17 18 -5 30 -25 16 -25 -11 0 -45 35 -45 47 0
7 -4 13 -10 13 -5 0 -10 -11 -10 -25 0 -20 9 -30 45 -47 48 -23 54 -32 30 -42
-8 -3 -19 3 -25 13 -5 11 -33 31 -62 46 -32 16 -42 25 -25 21 25 -6 27 -4 27
22 0 45 15 54 42 23z m-3235 -23 c-3 -8 -6 -5 -6 6 -1 11 2 17 5 13 3 -3 4
-12 1 -19z m2498 12 c-3 -5 -10 -10 -16 -10 -5 0 -9 5 -9 10 0 6 7 10 16 10 8
0 12 -4 9 -10z m-2073 -40 c10 0 18 -4 18 -10 0 -11 -11 -13 -34 -4 -9 3 -16
14 -16 23 0 13 -2 13 -9 2 -5 -7 -14 -10 -20 -6 -9 5 -7 11 6 20 16 12 19 11
27 -6 5 -10 17 -19 28 -19z m2688 30 c0 -5 -7 -7 -15 -4 -8 4 -15 8 -15 10 0
2 7 4 15 4 8 0 15 -4 15 -10z m-2296 -146 c-47 -124 -67 -149 -45 -56 15 57
84 209 89 193 2 -6 -18 -68 -44 -137z m206 136 c0 -5 -5 -10 -11 -10 -5 0 -7
5 -4 10 3 6 8 10 11 10 2 0 4 -4 4 -10z m177 -12 c-3 -8 -6 -5 -6 6 -1 11 2
17 5 13 3 -3 4 -12 1 -19z m2087 14 c3 -5 -1 -9 -9 -9 -8 0 -15 4 -15 9 0 4 4
8 9 8 6 0 12 -4 15 -8z m-3376 -60 c2 -7 -9 -5 -27 5 -17 10 -31 21 -31 26 0
4 -7 7 -16 7 -8 0 -12 4 -9 10 7 11 77 -30 83 -48z m547 48 c3 -5 2 -10 -4
-10 -5 0 -13 5 -16 10 -3 6 -2 10 4 10 5 0 13 -4 16 -10z m939 -1 c-3 -6 -2
-14 4 -18 14 -8 27 -61 15 -61 -12 0 -34 70 -27 82 3 4 7 8 10 8 3 0 2 -5 -2
-11z m119 -9 c-3 -11 -9 -20 -14 -20 -5 0 -9 -11 -9 -24 0 -13 -8 -30 -17 -37
-15 -12 -16 -12 -9 6 5 11 12 33 17 49 7 24 23 45 36 46 0 0 -1 -9 -4 -20z
m-963 -21 c0 -12 -4 -17 -11 -14 -6 4 -13 -2 -16 -14 -3 -12 -10 -21 -15 -21
-6 0 -3 11 6 25 9 13 16 31 16 40 0 9 5 13 10 10 6 -3 10 -15 10 -26z m930 21
c0 -5 -7 -10 -15 -10 -8 0 -15 5 -15 10 0 6 7 10 15 10 8 0 15 -4 15 -10z
m450 -5 c-7 -9 -15 -13 -17 -11 -7 7 7 26 19 26 6 0 6 -6 -2 -15z m46 0 c-9
-9 -20 -24 -25 -33 -5 -9 -13 -14 -16 -10 -9 9 27 57 43 58 10 0 10 -4 -2 -15z
m-1466 -5 c0 -5 -4 -10 -10 -10 -5 0 -10 5 -10 10 0 6 5 10 10 10 6 0 10 -4
10 -10z m1187 -22 c-3 -7 -5 -2 -5 12 0 14 2 19 5 13 2 -7 2 -19 0 -25z
m-1387 15 c0 -5 -18 -18 -40 -31 -22 -12 -40 -18 -40 -13 0 6 17 19 38 30 44
24 42 23 42 14z m168 -15 c2 -12 -11 -23 -61 -46 -5 -2 -3 5 5 17 7 12 21 21
32 21 16 0 17 2 5 17 -12 14 -12 16 1 11 8 -2 16 -11 18 -20z m949 0 c-3 -8
-6 -5 -6 6 -1 11 2 17 5 13 3 -3 4 -12 1 -19z m313 10 c0 -7 -8 -22 -17 -33
-14 -18 -15 -18 -9 -2 3 10 6 25 6 33 0 8 5 14 10 14 6 0 10 -6 10 -12z m570
2 c0 -5 -2 -10 -4 -10 -3 0 -8 5 -11 10 -3 6 -1 10 4 10 6 0 11 -4 11 -10z
m-927 -26 c4 -23 3 -24 -10 -11 -9 8 -12 20 -9 26 10 16 13 14 19 -15z m57
-31 c-11 -17 -11 -17 -6 0 3 10 7 28 7 40 2 22 2 22 6 0 2 -12 -1 -30 -7 -40z
m-1020 43 c0 -2 -7 -6 -15 -10 -8 -3 -15 -1 -15 4 0 6 7 10 15 10 8 0 15 -2
15 -4z m1885 -27 c8 -23 -1 -39 -21 -39 -19 0 -18 10 4 26 16 13 15 14 -7 11
-13 -1 -25 4 -27 11 -1 7 0 8 3 2 7 -16 26 -12 20 4 -4 10 -1 13 8 10 8 -3 17
-14 20 -25z m-2148 5 c2 -5 -8 -10 -21 -10 -20 -2 -22 1 -13 12 13 14 29 14
34 -2z m783 -35 c-6 -24 -12 -51 -15 -61 -5 -22 -36 -81 -40 -76 -2 2 11 45
28 95 33 97 45 116 27 42z m910 41 c0 -5 -5 -10 -11 -10 -5 0 -7 5 -4 10 3 6
8 10 11 10 2 0 4 -4 4 -10z m-103 -46 l0 -46 -15 28 c-10 20 -11 29 -3 32 6 2
11 10 11 18 0 8 2 14 3 14 2 0 4 -21 4 -46z m753 3 c0 -24 5 -48 11 -54 9 -9
6 -21 -9 -47 -11 -19 -17 -36 -13 -38 4 -2 2 -13 -5 -26 -11 -23 -12 -23 -17
-3 -3 12 -1 19 3 16 5 -3 7 12 5 32 -6 53 5 163 16 163 5 0 9 -19 9 -43z m884
27 c9 -24 7 -31 -4 -14 -9 13 -11 13 -20 0 -11 -17 -13 -10 -4 14 3 9 10 16
14 16 4 0 11 -7 14 -16z m-3406 -6 c-2 -8 5 -11 17 -9 40 8 68 6 72 -6 3 -8
-4 -13 -17 -13 -17 0 -20 -4 -15 -20 9 -28 -5 -25 -43 10 -18 17 -39 30 -45
31 -9 0 12 13 31 18 1 1 1 -5 0 -11z m1384 -18 c-12 -9 -31 -70 -21 -70 5 0 9
-7 9 -16 0 -8 -4 -13 -9 -9 -5 3 -19 -7 -31 -22 l-22 -28 7 25 c4 14 18 48 31
77 13 28 24 58 24 65 0 10 3 9 10 -2 5 -8 6 -17 2 -20z m258 -74 c-17 -27 -85
-109 -143 -171 l-37 -40 33 65 c18 36 52 108 76 160 l44 95 21 -43 c18 -38 19
-45 6 -66z m303 79 c-3 -9 0 -21 5 -28 16 -19 32 -100 25 -126 -4 -16 -8 -19
-14 -10 -4 8 -4 16 0 19 10 6 2 80 -9 80 -5 0 -10 -8 -12 -17 -2 -10 -5 10 -6
45 -1 37 2 61 8 57 5 -3 7 -12 3 -20z m305 -4 c-7 -12 -16 -21 -20 -21 -5 0
-8 -7 -8 -16 0 -14 2 -15 17 -3 14 12 16 12 11 -1 -2 -8 -17 -16 -32 -17 -27
-2 -27 -2 -11 23 23 36 48 64 53 60 2 -2 -3 -13 -10 -25z m-1871 13 c-3 -3
-12 -4 -19 -1 -8 3 -5 6 6 6 11 1 17 -2 13 -5z m303 -3 c0 -6 -4 -13 -10 -16
-5 -3 -10 1 -10 9 0 9 5 16 10 16 6 0 10 -4 10 -9z m25 -26 c-18 -45 -38 -191
-33 -249 2 -33 0 -42 -10 -38 -29 11 17 322 48 322 6 0 4 -16 -5 -35z m1648
13 c-11 -13 -29 -34 -40 -46 -12 -13 -32 -44 -45 -68 -13 -25 -28 -42 -35 -40
-9 4 -11 -4 -6 -24 3 -19 1 -30 -6 -30 -6 0 -11 7 -11 15 0 8 -4 15 -10 15
-14 0 -12 -11 4 -29 10 -11 12 -21 6 -31 -7 -11 -10 -12 -10 -2 0 21 -27 45
-33 29 -2 -6 -7 -10 -10 -7 -9 8 4 51 13 45 4 -3 10 4 13 15 4 14 14 20 34 20
24 0 32 6 43 35 8 19 17 35 22 35 4 0 8 5 8 11 0 14 61 79 74 79 5 0 0 -10
-11 -22z m-1827 -33 c-4 -14 -11 -25 -16 -25 -10 0 -4 43 8 65 9 15 14 -14 8
-40z m104 25 c0 -11 -2 -20 -4 -20 -2 0 -6 9 -9 20 -3 11 -1 20 4 20 5 0 9 -9
9 -20z m1777 -12 c-3 -7 -5 -2 -5 12 0 14 2 19 5 13 2 -7 2 -19 0 -25z m936 7
c9 -13 20 -39 22 -57 5 -31 5 -31 -5 -8 -6 13 -22 39 -36 57 -16 21 -20 33
-12 33 7 0 21 -12 31 -25z m-2943 11 c0 -7 -135 -86 -147 -86 -2 0 -3 4 -3 10
0 5 12 13 27 17 16 3 45 19 67 35 36 26 56 34 56 24z m170 -13 c0 -20 -17 -50
-24 -43 -2 3 -2 17 1 33 6 30 23 37 23 10z m890 -54 c-7 -16 -16 -29 -21 -29
-5 0 -9 -8 -9 -19 0 -10 -7 -24 -15 -31 -8 -7 -15 -17 -15 -22 0 -11 -50 -119
-62 -133 -5 -5 -15 -19 -23 -30 -12 -17 -14 -18 -15 -3 0 9 4 19 9 22 5 3 34
56 66 118 31 62 63 120 71 129 8 8 15 26 15 40 1 18 2 19 6 6 3 -10 -1 -32 -7
-48z m820 44 c-1 -10 -7 -29 -14 -42 -13 -23 -13 -22 -12 18 1 25 6 41 14 41
6 0 12 -8 12 -17z m1120 2 c0 -8 -4 -15 -10 -15 -5 0 -10 7 -10 15 0 8 5 15
10 15 6 0 10 -7 10 -15z m27 -17 c-3 -7 -5 -2 -5 12 0 14 2 19 5 13 2 -7 2
-19 0 -25z m-3340 -23 c-2 -31 -27 -76 -27 -48 0 6 6 14 13 16 9 4 8 8 -3 16
-13 10 -13 12 0 21 8 5 11 10 7 10 -5 0 -5 5 -2 10 11 18 14 11 12 -25z m2307
-106 c-20 -22 -33 -17 -15 5 7 8 15 41 19 73 l7 58 3 -59 c2 -44 -1 -63 -14
-77z m-1737 89 c-3 -8 -6 -5 -6 6 -1 11 2 17 5 13 3 -3 4 -12 1 -19z m310 0
c-3 -8 -6 -5 -6 6 -1 11 2 17 5 13 3 -3 4 -12 1 -19z m219 -4 c4 -14 1 -42 -5
-62 -13 -43 -27 -141 -26 -194 0 -21 -3 -38 -6 -38 -14 0 -15 75 -2 124 7 28
13 65 13 83 0 18 4 33 8 33 5 0 7 14 4 30 -2 17 -8 30 -13 30 -5 0 -9 5 -9 10
0 22 30 8 36 -16z m234 19 c-1 -5 -11 -27 -23 -50 l-22 -42 0 49 c0 45 2 50
23 50 12 0 22 -3 22 -7z m342 -25 c-7 -7 -12 -8 -12 -2 0 14 12 26 19 19 2 -3
-1 -11 -7 -17z m799 -16 c-6 -2 -11 -16 -11 -32 0 -15 -9 -38 -20 -51 -23 -28
-27 -13 -4 19 8 12 13 26 10 31 -4 5 2 23 11 40 14 24 19 27 22 14 2 -10 -2
-19 -8 -21z m-2511 18 c0 -5 -4 -10 -10 -10 -5 0 -10 5 -10 10 0 6 5 10 10 10
6 0 10 -4 10 -10z m1098 -26 c9 -17 9 -24 -1 -33 -10 -8 -13 -2 -14 25 -1 39
-1 39 15 8z m1003 -27 c-11 -24 -21 -48 -21 -54 0 -5 -9 -18 -21 -28 l-20 -19
21 48 c25 59 53 107 58 101 2 -2 -5 -24 -17 -48z m-2111 18 c19 -21 21 -25 7
-25 -9 0 -17 4 -17 9 0 19 -39 22 -64 6 -14 -9 -29 -14 -34 -11 -5 3 -7 -6 -4
-20 3 -17 -2 -30 -17 -43 -13 -12 -18 -22 -12 -26 7 -4 4 -14 -8 -27 -25 -26
-41 -16 -41 28 0 32 -2 34 -21 24 -11 -6 -25 -10 -32 -7 -6 2 7 12 31 22 23
10 42 22 42 27 0 4 7 8 15 8 22 0 18 -18 -5 -25 -11 -3 -20 -11 -20 -16 0 -15
30 -10 47 7 13 13 14 20 5 35 -10 16 -7 19 28 29 21 6 42 15 45 20 10 17 30
11 55 -15z m260 -42 c15 -48 23 -101 25 -178 4 -97 3 -104 -6 -55 -6 30 -8 70
-5 87 2 18 1 35 -3 38 -5 2 -11 27 -14 55 -4 36 -13 57 -29 70 -21 18 -22 19
-4 20 20 0 20 0 0 15 -16 12 -17 14 -2 15 11 0 22 -20 38 -67z m3160 1 c0 -36
-4 -63 -9 -60 -4 3 -25 -13 -45 -35 -36 -40 -45 -56 -26 -44 6 3 7 -1 4 -9 -3
-9 -10 -13 -15 -10 -5 3 -9 -2 -9 -10 0 -9 -4 -16 -10 -16 -13 0 -14 -2 18 65
29 59 29 58 9 150 -2 11 -2 14 0 8 3 -7 9 -13 14 -13 5 0 9 -18 9 -40 0 -33 3
-40 20 -40 17 0 20 6 19 38 -2 30 -3 32 -6 10 -5 -35 -23 -37 -23 -2 0 17 6
28 20 31 11 3 20 14 20 24 0 11 2 19 5 19 3 0 5 -30 5 -66z m-2975 -59 c-4
-58 -10 -104 -12 -101 -3 3 -2 52 2 111 4 58 10 104 12 101 3 -3 2 -52 -2
-111z m475 100 c0 -8 -4 -15 -10 -15 -5 0 -10 7 -10 15 0 8 5 15 10 15 6 0 10
-7 10 -15z m764 -29 c-14 -23 -14 -26 -1 -26 9 0 19 9 22 20 9 29 23 25 17 -5
-2 -15 0 -25 7 -25 6 0 11 5 11 11 0 5 4 7 10 4 6 -4 5 -13 -2 -25 -11 -17
-14 -18 -29 -4 -13 12 -18 13 -22 2 -3 -10 -8 -9 -23 4 -18 15 -20 15 -36 -7
-15 -20 -16 -25 -3 -35 9 -8 12 -17 7 -24 -5 -6 -6 -22 -2 -36 l7 -25 8 28 c7
27 53 83 61 74 7 -7 -66 -102 -79 -102 -7 0 -13 16 -15 38 -3 37 -22 43 -22 6
0 -19 -24 -27 -34 -11 -4 7 31 57 84 119 10 12 24 32 31 45 7 13 14 18 16 11
2 -6 -3 -23 -13 -37z m-364 24 c0 -5 -5 -10 -11 -10 -5 0 -7 5 -4 10 3 6 8 10
11 10 2 0 4 -4 4 -10z m-1236 -25 c-23 -17 -40 -19 -50 -4 -4 8 0 9 15 4 12
-4 21 -2 21 4 0 6 8 11 17 11 15 0 14 -2 -3 -15z m1701 -5 c16 -17 16 -20 3
-15 -9 4 -19 13 -22 21 -7 19 -2 18 19 -6z m-1658 -22 c-3 -7 -5 -2 -5 12 0
14 2 19 5 13 2 -7 2 -19 0 -25z m1812 -82 c-9 -8 -10 -2 -5 29 3 22 7 51 8 65
1 14 3 1 5 -29 3 -33 0 -58 -8 -65z m-1939 100 c0 -2 -7 -6 -15 -10 -8 -3 -15
-1 -15 4 0 6 7 10 15 10 8 0 15 -2 15 -4z m34 -15 c3 -5 -1 -11 -9 -15 -15 -6
-29 7 -18 18 9 9 21 8 27 -3z m812 -42 c0 -31 -3 -44 -7 -33 -7 18 -7 18 -14
1 -4 -10 -3 -23 4 -30 6 -6 11 -24 11 -40 0 -25 19 -57 34 -57 3 0 6 10 6 23
1 21 21 57 33 57 6 0 -20 -65 -49 -125 l-15 -30 6 33 c6 27 2 37 -15 52 -16
14 -21 26 -17 42 11 44 -9 51 -22 8 -7 -24 -18 -40 -27 -40 -13 0 -13 3 -1 28
19 35 42 88 57 130 7 17 13 32 14 32 1 0 2 -23 2 -51z m401 29 c-3 -8 -6 -5
-6 6 -1 11 2 17 5 13 3 -3 4 -12 1 -19z m563 -41 c0 -5 -4 -5 -10 -2 -5 3 -10
14 -10 23 0 15 2 15 10 2 5 -8 10 -19 10 -23z m-1569 -19 c7 -74 -1 -128 -17
-128 -16 0 -19 44 -8 124 8 58 21 60 25 4z m1049 1 c0 -9 -8 -27 -18 -39 -18
-22 -18 -22 -14 20 l4 43 -26 -19 c-14 -11 -26 -25 -26 -31 0 -7 -4 -13 -10
-13 -5 0 -10 3 -10 8 1 14 27 42 40 42 7 0 10 6 7 14 -5 11 0 12 24 3 16 -6
29 -19 29 -28z m630 26 c0 -1 -7 -18 -15 -36 l-14 -34 2 41 c1 28 6 40 15 37
6 -3 12 -6 12 -8z m-2017 -40 c-8 -5 -29 -22 -46 -37 -34 -29 -47 -34 -47 -18
0 6 6 10 13 10 8 0 7 4 -3 11 -12 9 -12 10 4 5 12 -4 24 0 33 14 8 11 22 20
31 20 12 0 13 3 4 12 -7 7 -12 16 -12 22 0 5 9 1 19 -10 17 -17 17 -20 4 -29z
m51 31 c-10 -8 -21 -12 -24 -10 -5 6 21 24 34 24 6 0 1 -6 -10 -14z m1026 0
c0 -8 -4 -18 -10 -21 -5 -3 -10 -23 -10 -43 0 -47 -10 -82 -22 -82 -6 0 -7 8
-3 18 15 35 17 74 5 98 -8 13 -10 27 -7 31 4 3 7 1 7 -5 0 -7 5 -12 10 -12 6
0 10 7 10 15 0 8 5 15 10 15 6 0 10 -6 10 -14z m27 -23 c-3 -10 -5 -4 -5 12 0
17 2 24 5 18 2 -7 2 -21 0 -30z m1138 28 c3 -5 1 -12 -5 -16 -5 -3 -10 1 -10
9 0 18 6 21 15 7z m309 -6 c-4 -8 -11 -15 -16 -15 -6 0 -5 6 2 15 7 8 14 15
16 15 2 0 1 -7 -2 -15z m-2724 -5 c0 -5 -5 -10 -11 -10 -5 0 -7 5 -4 10 3 6 8
10 11 10 2 0 4 -4 4 -10z m2555 -12 c-3 -8 -21 -21 -40 -28 -25 -10 -31 -16
-23 -23 10 -7 10 -8 0 -5 -24 6 -18 21 18 41 19 10 37 23 39 29 1 5 5 7 7 5 3
-2 2 -11 -1 -19z m105 12 c0 -5 -5 -10 -11 -10 -5 0 -7 5 -4 10 3 6 8 10 11
10 2 0 4 -4 4 -10z m-583 -63 c-3 -7 -6 -5 -6 6 -2 30 -16 18 -46 -38 -15 -30
-32 -55 -37 -55 -5 0 -6 5 -3 10 13 22 -14 9 -28 -14 -15 -23 -67 -42 -67 -25
0 5 6 9 13 9 7 0 29 14 47 30 25 23 36 27 43 18 5 -8 6 -5 2 10 -4 13 -2 22 5
22 6 0 14 8 17 18 4 9 13 27 21 40 l15 23 14 -21 c8 -11 12 -26 10 -33z m1603
49 c0 -15 -29 -55 -34 -47 -7 11 14 51 26 51 5 0 8 -2 8 -4z m-3715 -16 c-3
-5 -10 -10 -16 -10 -5 0 -9 5 -9 10 0 6 7 10 16 10 8 0 12 -4 9 -10z m1552
-15 c-4 -8 -11 -15 -17 -15 -6 0 -6 7 2 20 14 22 24 19 15 -5z m800 -37 c-2
-13 -4 -3 -4 22 0 25 2 35 4 23 2 -13 2 -33 0 -45z m121 42 c11 -18 10 -20
-15 -19 -24 0 -25 2 -8 8 19 8 19 8 0 19 -15 8 -16 11 -5 12 8 0 21 -9 28 -20z
m257 10 c-3 -5 -10 -10 -16 -10 -5 0 -9 5 -9 10 0 6 7 10 16 10 8 0 12 -4 9
-10z m-2697 -12 c-3 -7 -13 -15 -23 -16 -15 -4 -16 -2 -4 12 17 19 32 21 27 4z
m2185 -67 c-11 -23 -37 -54 -63 -72 -25 -18 -39 -25 -31 -16 9 11 10 17 2 17
-6 0 -11 5 -11 11 0 5 4 8 9 5 27 -17 79 41 97 107 5 20 7 21 11 5 2 -9 -4
-35 -14 -57z m367 59 c0 -5 -5 -10 -11 -10 -5 0 -7 5 -4 10 3 6 8 10 11 10 2
0 4 -4 4 -10z m-2647 -19 c-13 -11 -23 -24 -23 -30 0 -6 -4 -11 -9 -11 -5 0
-16 -3 -25 -6 -10 -4 -16 -1 -16 7 0 7 3 10 6 6 3 -3 16 5 28 17 18 20 40 33
56 35 3 0 -5 -8 -17 -18z m1371 -31 c4 -31 3 -40 -4 -30 -6 10 -10 11 -10 3 0
-7 -4 -13 -8 -13 -8 0 -5 50 4 79 7 20 10 12 18 -39z m1297 17 c-6 -6 -11 -15
-11 -19 0 -9 6 -6 65 32 39 24 55 25 24 2 -35 -27 -118 -72 -132 -72 -7 1 -1
10 13 22 16 14 21 22 13 25 -20 7 -15 23 7 23 11 0 20 6 21 13 0 9 2 8 6 -1 3
-8 0 -19 -6 -25z m-2525 8 c-8 -8 -19 -15 -25 -15 -5 0 -12 -8 -14 -17 -3 -10
-5 -3 -6 15 -1 29 1 32 30 32 27 0 29 -2 15 -15z m254 -84 c-20 -81 -62 -154
-126 -218 -66 -67 -166 -123 -218 -123 -28 0 -28 1 -23 41 15 111 114 227 302
353 l70 46 3 -26 c2 -15 -2 -48 -8 -73z m850 89 c0 -5 -4 -10 -10 -10 -5 0
-10 5 -10 10 0 6 5 10 10 10 6 0 10 -4 10 -10z m297 -30 c-12 -22 -26 -40 -30
-40 -5 0 -1 10 7 22 9 12 16 30 16 40 0 10 6 18 14 18 11 0 9 -9 -7 -40z
m-1530 -10 c-2 -26 -6 -30 -30 -30 -25 0 -27 2 -13 15 8 8 19 15 25 15 6 0 11
7 11 15 0 8 2 15 5 15 2 0 3 -13 2 -30z m1887 9 c-3 -5 -10 -7 -15 -3 -5 3 -7
10 -3 15 3 5 10 7 15 3 5 -3 7 -10 3 -15z m266 7 c0 -8 -7 -16 -15 -20 -13 -4
-14 -2 -5 14 13 23 20 26 20 6z m-2000 -4 c0 -11 -38 -42 -53 -42 -7 1 -5 6 6
14 9 7 17 18 17 25 0 6 7 11 15 11 8 0 15 -3 15 -8z m1790 -1 c0 -5 -6 -11
-12 -14 -7 -2 -10 -8 -5 -12 4 -5 14 0 21 11 8 10 17 16 21 12 7 -7 -25 -57
-36 -58 -10 0 -26 44 -22 58 5 14 33 17 33 3z m641 -5 c-6 -7 -9 -21 -5 -30 3
-9 5 -16 3 -16 -2 0 -24 -6 -50 -14 -38 -12 -50 -12 -79 0 -18 8 -30 17 -27
21 4 3 13 0 21 -7 11 -8 31 -10 66 -5 44 6 50 10 50 30 0 20 9 30 29 34 2 1
-2 -5 -8 -13z m-1784 -43 c-3 -10 -5 -2 -5 17 0 19 2 27 5 18 2 -10 2 -26 0
-35z m170 15 c-3 -8 -6 -5 -6 6 -1 11 2 17 5 13 3 -3 4 -12 1 -19z m37 -19 c4
-19 13 -33 26 -36 11 -3 20 -9 20 -13 0 -5 8 -10 18 -13 9 -2 1 -4 -19 -3 -21
1 -35 5 -32 9 3 5 -2 14 -11 20 -18 13 -36 84 -19 74 6 -4 13 -21 17 -38z
m156 21 c0 -5 -5 -10 -11 -10 -5 0 -7 5 -4 10 3 6 8 10 11 10 2 0 4 -4 4 -10z
m435 -35 c-19 -37 -30 -43 -38 -22 -2 6 -8 9 -12 4 -5 -4 -3 -13 3 -19 17 -17
15 -32 -8 -58 -24 -28 -27 -14 -3 20 16 22 16 23 -2 17 -15 -6 -16 -5 -6 7 8
9 8 15 2 18 -7 2 -8 14 -3 32 7 25 9 26 21 12 15 -18 31 -21 31 -6 0 13 23 40
30 34 2 -3 -4 -20 -15 -39z m585 22 c11 -5 9 -6 -4 -4 -11 1 -21 9 -23 17 -3
10 -2 11 4 4 4 -6 15 -14 23 -17z m1460 13 c0 -5 -4 -10 -10 -10 -5 0 -10 5
-10 10 0 6 5 10 10 10 6 0 10 -4 10 -10z m40 2 c0 -15 -64 -46 -68 -34 -2 7
-8 10 -13 6 -5 -3 -9 0 -9 6 0 8 9 10 25 6 18 -5 27 -2 31 9 6 15 34 21 34 7z
m-3769 -14 c-1 -5 -1 -17 -1 -29 0 -12 -4 -17 -11 -13 -6 3 -9 15 -6 25 7 25
-5 24 -20 -1 -9 -13 -9 -21 -2 -25 6 -4 3 -12 -8 -20 -13 -10 -20 -10 -25 -2
-12 19 -10 24 18 52 24 24 56 31 55 13z m1207 -23 c-1 -1 -14 -6 -27 -10 l-24
-7 19 25 c16 21 21 22 27 10 5 -8 7 -16 5 -18z m717 -14 c1 -36 -3 -47 -12
-44 -15 6 -17 23 -3 23 6 0 10 7 10 17 0 14 -2 14 -20 -2 -11 -10 -19 -23 -17
-29 2 -6 -3 -17 -11 -25 -12 -12 -12 -15 2 -23 9 -5 16 -16 16 -24 0 -8 4 -13
9 -10 5 3 7 15 4 26 -4 13 0 20 9 20 9 0 14 -9 14 -22 -1 -21 5 -24 54 -29
l55 -6 -72 -1 c-77 -2 -98 8 -109 54 -5 18 3 36 32 74 21 27 38 50 39 50 0 0
0 -22 0 -49z m-1761 33 c11 -4 4 -16 -29 -51 -24 -25 -50 -58 -57 -74 -15 -34
-32 -39 -22 -6 6 20 34 55 76 95 13 12 14 19 6 29 -11 14 -1 17 26 7z m2423 0
c-3 -3 -12 -4 -19 -1 -8 3 -5 6 6 6 11 1 17 -2 13 -5z m-1530 -36 c-3 -7 -5
-2 -5 12 0 14 2 19 5 13 2 -7 2 -19 0 -25z m1114 -17 c1 -14 1 -32 0 -39 -2
-10 5 -9 24 4 14 9 28 14 31 11 3 -3 -7 -12 -24 -21 -25 -13 -32 -13 -48 -1
-17 13 -17 14 -2 15 11 0 15 6 11 20 -6 24 -23 27 -23 4 0 -14 -3 -14 -15 -4
-14 11 -14 15 2 30 24 22 43 14 44 -19z m-1242 -53 c1 -5 -3 -8 -9 -8 -5 0
-10 9 -10 20 0 11 -3 20 -7 20 -5 0 -9 12 -9 28 -1 24 0 23 16 -13 10 -22 19
-43 19 -47z m2751 72 c12 -8 9 -10 -12 -10 -16 0 -28 5 -28 10 0 13 20 13 40
0z m-3124 -71 c-15 -43 -13 -66 3 -40 8 12 8 3 2 -66 -1 -18 -31 -16 -31 1 0
8 6 16 13 19 9 3 9 9 -2 30 -10 19 -11 30 -3 39 5 7 14 31 18 53 4 22 10 33
11 24 2 -9 -3 -36 -11 -60z m654 51 c0 -5 -4 -10 -10 -10 -5 0 -10 5 -10 10 0
6 5 10 10 10 6 0 10 -4 10 -10z m876 0 c8 0 14 -4 14 -8 0 -5 -13 -7 -30 -4
-16 2 -30 9 -30 14 0 6 7 7 16 4 9 -3 22 -6 30 -6z m-2172 -67 c-5 -15 -15
-28 -22 -31 -10 -3 -9 4 3 28 11 21 13 36 7 42 -7 7 -12 3 -17 -11 -3 -12 -11
-21 -16 -21 -16 0 -10 18 13 40 l23 21 9 -21 c6 -13 6 -31 0 -47z m130 2 c-12
-38 -18 -35 -27 12 -6 31 -5 32 13 21 14 -9 18 -19 14 -33z m613 8 c-3 -10 -5
-4 -5 12 0 17 2 24 5 18 2 -7 2 -21 0 -30z m20 15 c-3 -8 -6 -5 -6 6 -1 11 2
17 5 13 3 -3 4 -12 1 -19z m37 -10 c-3 -18 -13 -53 -22 -78 -9 -25 -17 -47
-18 -50 0 -3 -6 -16 -12 -30 -11 -24 -11 -24 -8 8 1 17 6 35 9 39 4 3 7 19 7
34 0 15 7 29 15 33 9 3 15 19 15 41 0 19 4 35 10 35 5 0 7 -14 4 -32z m246 16
c0 -8 -4 -12 -10 -9 -5 3 -10 10 -10 16 0 5 5 9 10 9 6 0 10 -7 10 -16z m460
-8 c0 -13 2 -33 5 -43 3 -10 -1 -4 -9 12 l-15 30 -1 -27 c0 -15 7 -31 16 -36
9 -5 15 -15 12 -22 -6 -19 -34 28 -42 73 -6 33 -5 37 14 37 15 0 20 -6 20 -24z
m27 -13 c-3 -10 -5 -4 -5 12 0 17 2 24 5 18 2 -7 2 -21 0 -30z m-207 8 c0 -5
-6 -14 -14 -20 -12 -10 -13 -8 -9 8 5 21 23 30 23 12z m870 5 c0 -3 -4 -8 -10
-11 -5 -3 -10 -1 -10 4 0 6 5 11 10 11 6 0 10 -2 10 -4z m-871 -67 c-23 -41
-29 -47 -24 -24 4 16 10 32 14 35 5 3 14 16 20 28 7 13 15 22 17 19 2 -2 -10
-28 -27 -58z m910 47 c-2 -2 -19 -11 -36 -20 -28 -14 -33 -14 -33 -2 0 13 18
21 59 25 8 0 12 -1 10 -3z m-1194 -26 c3 -5 -1 -10 -9 -10 -9 0 -16 5 -16 10
0 6 4 10 9 10 6 0 13 -4 16 -10z m-905 -17 c0 -5 -7 -17 -15 -27 -8 -11 -16
-31 -16 -45 -2 -24 -2 -24 -6 -3 -5 24 16 82 29 82 5 0 8 -3 8 -7z m607 -15
c-3 -8 -6 -5 -6 6 -1 11 2 17 5 13 3 -3 4 -12 1 -19z m810 16 c-3 -3 -12 -4
-19 -1 -8 3 -5 6 6 6 11 1 17 -2 13 -5z m69 -20 c-3 -9 0 -11 12 -7 15 6 15 4
4 -9 -16 -20 -64 -32 -92 -23 -34 11 -22 21 23 18 l42 -3 -30 15 c-25 11 -26
14 -10 16 11 1 26 1 34 0 8 -2 10 2 5 10 -5 8 -3 10 5 5 7 -5 10 -14 7 -22z
m54 16 c0 -5 -5 -10 -11 -10 -5 0 -7 5 -4 10 3 6 8 10 11 10 2 0 4 -4 4 -10z
m-629 -22 c11 -21 11 -22 -4 -9 -10 7 -17 17 -17 22 0 15 9 10 21 -13z m-1141
-9 c-7 -11 -14 -18 -17 -15 -8 8 5 36 17 36 7 0 7 -6 0 -21z m710 14 c-1 -10
-36 -53 -44 -53 -7 0 5 32 18 47 12 14 26 17 26 6z m-680 -54 c0 -6 -4 -8 -10
-4 -13 8 -50 -17 -50 -34 0 -7 8 -20 18 -27 16 -13 16 -13 0 -14 -10 0 -18 5
-18 10 0 25 -19 6 -23 -22 -2 -18 -3 -11 -1 17 2 27 8 51 14 53 5 2 10 10 10
18 0 7 6 11 14 8 8 -3 17 0 21 5 7 13 25 5 25 -10z m1280 -13 c-4 -4 -27 -7
-49 -4 -29 2 -41 0 -41 -9 0 -7 -4 -13 -10 -13 -11 0 -12 3 -5 22 3 9 24 13
60 13 30 0 50 -4 45 -9z m-648 -20 c4 -18 1 -23 -9 -19 -20 8 -70 -49 -69 -78
1 -16 -5 -24 -19 -26 -15 -1 -16 -1 -2 3 20 6 23 34 3 34 -8 0 -16 -7 -20 -15
-3 -8 -13 -15 -23 -15 -13 0 -5 12 27 40 25 22 48 40 53 40 4 0 7 5 7 11 0 8
36 46 46 49 1 0 4 -11 6 -24z m-655 -18 c-3 -7 -5 -2 -5 12 0 14 2 19 5 13 2
-7 2 -19 0 -25z m1319 17 c-11 -8 -38 -15 -60 -14 l-41 1 50 13 c67 17 73 17
51 0z m-518 -70 c-13 -19 -26 -35 -30 -35 -12 0 -10 10 5 25 6 8 18 21 25 30
23 27 23 16 0 -20z m-38 10 c-7 -9 -15 -13 -17 -11 -7 7 7 26 19 26 6 0 6 -6
-2 -15z m-10 -67 c0 -7 -14 -28 -30 -47 -34 -39 -60 -36 -59 6 0 28 0 28 10 4
9 -23 10 -23 30 -5 20 18 20 19 2 32 -17 13 -16 14 10 10 15 -3 27 -1 27 3 0
5 2 9 5 9 3 0 5 -6 5 -12z m-801 -78 c11 -8 51 -110 42 -110 -4 0 -12 10 -18
23 -34 71 -43 99 -41 134 l1 38 4 -40 c3 -22 8 -42 12 -45z m531 70 c-8 -5
-19 -10 -25 -10 -5 0 -3 5 5 10 8 5 20 10 25 10 6 0 3 -5 -5 -10z m-55 -20
c-4 -6 6 -10 24 -10 16 0 31 6 34 13 2 6 8 8 13 4 5 -4 2 -12 -6 -18 -13 -8
-13 -10 0 -18 27 -18 5 -20 -44 -4 -43 14 -50 14 -60 2 -8 -11 -30 -15 -77
-14 -83 0 -71 19 19 28 35 4 71 11 80 17 22 12 25 12 17 0z m-195 -15 c18 -10
20 -14 8 -15 -9 0 -18 -5 -20 -12 -3 -8 -9 -8 -24 0 -11 7 -14 12 -5 12 7 0
11 6 7 15 -7 18 2 18 34 0z m210 -31 c0 -2 -7 -4 -15 -4 -8 0 -15 4 -15 10 0
5 7 7 15 4 8 -4 15 -8 15 -10z m-435 -31 c13 -60 13 -62 -1 -56 -8 3 -14 16
-14 28 0 13 -3 30 -6 39 -3 9 -1 16 5 16 6 0 13 -12 16 -27z m632 21 c-3 -3
-12 -4 -19 -1 -8 3 -5 6 6 6 11 1 17 -2 13 -5z m-37 -8 c0 -3 -4 -8 -10 -11
-5 -3 -10 -1 -10 4 0 6 5 11 10 11 6 0 10 -2 10 -4z m22 -46 c-38 -36 -109
-68 -136 -63 -42 8 -45 27 -3 20 20 -3 39 -2 42 3 3 4 17 11 32 15 15 3 33 15
41 26 7 10 20 19 29 19 14 0 13 -4 -5 -20z m-182 -70 c0 -5 -4 -10 -10 -10 -5
0 -10 5 -10 10 0 6 5 10 10 10 6 0 10 -4 10 -10z m55 -10 c-3 -5 -15 -10 -26
-10 -11 0 -17 5 -14 10 3 6 15 10 26 10 11 0 17 -4 14 -10z m-55 -20 c0 -5 -4
-10 -10 -10 -5 0 -10 5 -10 10 0 6 5 10 10 10 6 0 10 -4 10 -10z m-300 -18
c21 -10 19 -10 -20 -5 -25 3 -51 9 -58 13 -22 11 51 4 78 -8z m119 2 c9 -8
-75 -3 -88 5 -8 5 5 7 35 4 27 -3 51 -7 53 -9z m131 4 c0 -9 -65 -22 -82 -15
-7 3 -2 6 12 6 16 1 21 4 13 9 -8 5 1 8 22 8 19 0 35 -3 35 -8z m-147 -25
c-13 -2 -33 -2 -45 0 -13 2 -3 4 22 4 25 0 35 -2 23 -4z"/>
<path d="M510 3180 c0 -5 5 -10 10 -10 6 0 10 5 10 10 0 6 -4 10 -10 10 -5 0
-10 -4 -10 -10z"/>
<path d="M1315 2650 c4 -6 11 -8 16 -5 14 9 11 15 -7 15 -8 0 -12 -5 -9 -10z"/>
<path d="M360 2395 c0 -8 5 -15 10 -15 6 0 10 7 10 15 0 8 -4 15 -10 15 -5 0
-10 -7 -10 -15z"/>
<path d="M3080 2204 c0 -9 5 -14 12 -12 18 6 21 28 4 28 -9 0 -16 -7 -16 -16z"/>
<path d="M810 2172 c0 -17 39 -44 57 -39 15 3 13 6 -9 15 -16 6 -28 16 -28 22
0 5 -4 10 -10 10 -5 0 -10 -4 -10 -8z"/>
<path d="M975 2040 c3 -5 10 -10 16 -10 5 0 9 5 9 10 0 6 -7 10 -16 10 -8 0
-12 -4 -9 -10z"/>
<path d="M3693 2003 c9 -2 23 -2 30 0 6 3 -1 5 -18 5 -16 0 -22 -2 -12 -5z"/>
<path d="M3530 1765 c0 -8 5 -15 10 -15 6 0 10 7 10 15 0 8 -4 15 -10 15 -5 0
-10 -7 -10 -15z"/>
<path d="M890 1605 c0 -8 5 -15 10 -15 6 0 10 7 10 15 0 8 -4 15 -10 15 -5 0
-10 -7 -10 -15z"/>
</g>
</svg>
