<?xml version="1.0" encoding="UTF-8"?>
<svg width="80px" height="80px" viewBox="0 0 24 24" stroke-width="1.5" fill="none" xmlns="http://www.w3.org/2000/svg" color="#38bdf8">
  <path d="M10.05 10.607l-7.07 7.07a2 2 0 000 2.83v0a2 2 0 002.828 0l7.07-7.072M17.193 13.8l3.878 3.878a2 2 0 010 2.828v0a2 2 0 01-2.828 0l-3.879-3.879M6.733 5.904L4.61 8.027M9.172 3.464l-.707.707M11.95 2.757l-1.414 1.414M14.391 4.171l-.707.707M2.757 11.95l1.415-1.414M4.464 14.391l-.707.707M2 12c0-5.523 4.477-10 10-10 .773 0 1.526.088 2.25.254C17.57 3.012 20 6.07 20 9.75c0 1.718-.252 2.752-1.66 4.401" stroke="#38bdf8" stroke-width="1.5" stroke-linecap="round" stroke-linejoin="round"></path>
</svg>
